<svg xmlns="http://www.w3.org/2000/svg" xmlns:xlink="http://www.w3.org/1999/xlink" fill="none" version="1.1" width="31.999984741210938" height="32.00001525878906" viewBox="0 0 31.999984741210938 32.00001525878906"><g><path d="M24.64,16.704C24.64,16.704,7.36,16.704,7.36,16.704C6.65601,16.704,6.08002,16.128,6.08002,15.424C6.08002,14.72,6.65601,14.144,7.36,14.144C7.36,14.144,24.64,14.144,24.64,14.144C25.344,14.144,25.92,14.72,25.92,15.424C25.92,16.128,25.36,16.704,24.64,16.704C24.64,16.704,24.64,16.704,24.64,16.704ZM2.56,29.44C2.56,29.44,2.56,21.76,2.56,21.76C2.56,21.056,1.98398,20.48,1.28,20.48C0.575974,20.48,0,21.056,0,21.76C0,21.76,0,30.08,0,30.08C0,31.136,0.864014,32,1.91998,32C1.91998,32,10.24,32,10.24,32C10.944,32,11.52,31.424,11.52,30.72C11.52,30.016,10.944,29.44,10.24,29.44C10.24,29.44,2.56,29.44,2.56,29.44C2.56,29.44,2.56,29.44,2.56,29.44ZM2.56,2.56C2.56,2.56,10.24,2.56,10.24,2.56C10.944,2.56,11.52,1.98401,11.52,1.28001C11.52,0.576004,10.944,0,10.24,0C10.24,0,1.91998,0,1.91998,0C0.863983,0,0,0.863998,0,1.92C0,1.92,0,10.24,0,10.24C0,10.944,0.575974,11.52,1.28,11.52C1.98398,11.52,2.56,10.944,2.56,10.24C2.56,10.24,2.56,2.56,2.56,2.56C2.56,2.56,2.56,2.56,2.56,2.56ZM29.44,29.44C29.44,29.44,21.76,29.44,21.76,29.44C21.056,29.44,20.48,30.016,20.48,30.72C20.48,31.424,21.056,32,21.76,32C21.76,32,30.08,32,30.08,32C31.136,32,32,31.136,32,30.08C32,30.08,32,21.76,32,21.76C32,21.056,31.424,20.48,30.72,20.48C30.016,20.48,29.44,21.056,29.44,21.76C29.44,21.76,29.44,29.44,29.44,29.44C29.44,29.44,29.44,29.44,29.44,29.44ZM30.08,0C30.08,0,21.76,0,21.76,0C21.056,0,20.48,0.576004,20.48,1.28001C20.48,1.98402,21.056,2.56,21.76,2.56C21.76,2.56,29.44,2.56,29.44,2.56C29.44,2.56,29.44,10.24,29.44,10.24C29.44,10.944,30.016,11.52,30.72,11.52C31.424,11.52,32,10.944,32,10.24C32,10.24,32,1.92,32,1.92C32,0.863998,31.152,0,30.08,0C30.08,0,30.08,0,30.08,0Z" fill="#377AF6" fill-opacity="1"/></g></svg>