<svg xmlns="http://www.w3.org/2000/svg" xmlns:xlink="http://www.w3.org/1999/xlink" width="88" height="88" viewBox="0 0 88 88">
  <defs>
    <style>
      .cls-1 {
        fill: url(#linear-gradient);
      }

      .cls-2 {
        fill: none;
      }

      .cls-3, .cls-4 {
        fill: #fff;
      }

      .cls-4 {
        opacity: 0.6;
      }
    </style>
    <linearGradient id="linear-gradient" x1="0.5" x2="0.5" y2="1" gradientUnits="objectBoundingBox">
      <stop offset="0" stop-color="#fda688"/>
      <stop offset="1" stop-color="#fd7955"/>
    </linearGradient>
  </defs>
  <g id="洗浴" transform="translate(-331 -702)">
    <circle id="椭圆_9" data-name="椭圆 9" class="cls-1" cx="44" cy="44" r="44" transform="translate(331 702)"/>
    <path id="路径_30179" data-name="路径 30179" class="cls-2" d="M113.054,85.8H107.6V73.084a9.084,9.084,0,1,0-18.168,0v3.634a1.817,1.817,0,1,0,3.634,0V73.084a5.45,5.45,0,1,1,10.9,0V85.8H65.817A1.716,1.716,0,0,0,64,87.618v14.534a9,9,0,0,0,9.084,9.084H74.9v1.817a1.817,1.817,0,0,0,3.634,0v-1.817h21.8v1.817a1.817,1.817,0,0,0,3.634,0v-1.817h1.817a9,9,0,0,0,9.084-9.084V87.618A1.716,1.716,0,0,0,113.054,85.8ZM85.8,89.435v5.45A1.716,1.716,0,0,1,83.985,96.7H80.351a1.716,1.716,0,0,1-1.817-1.817v-5.45Zm25.435,12.718a5.588,5.588,0,0,1-5.45,5.45h-32.7a5.588,5.588,0,0,1-5.45-5.45V89.435H74.9v5.45a5.588,5.588,0,0,0,5.45,5.45h3.634a5.588,5.588,0,0,0,5.45-5.45v-5.45h21.8Z" transform="translate(285.565 656.565)"/>
    <path id="矩形_24740" data-name="矩形 24740" class="cls-3" d="M2,0A2,2,0,0,0,0,2v9a8,8,0,0,0,8,8H36a8,8,0,0,0,8-8V2a2,2,0,0,0-2-2H2M2-4H42a6.007,6.007,0,0,1,6,6v9A12,12,0,0,1,36,23H8A12,12,0,0,1-4,11V2A6.007,6.007,0,0,1,2-4Z" transform="translate(353 745)"/>
    <rect id="矩形_24741" data-name="矩形 24741" class="cls-3" width="4" height="6" rx="2" transform="translate(361 766)"/>
    <rect id="矩形_24742" data-name="矩形 24742" class="cls-3" width="4" height="6" rx="2" transform="translate(385 766)"/>
    <path id="矩形_24743" data-name="矩形 24743" class="cls-4" d="M0,0V5A5,5,0,0,0,10,5V0H0M-3-3H13V5A8,8,0,0,1-3,5Z" transform="translate(363 745)"/>
    <path id="联合_3" data-name="联合 3" class="cls-3" d="M17,39H13V24.5a4.5,4.5,0,0,0-9,0V30a2,2,0,0,1-4,0V24.5a8.5,8.5,0,0,1,17,0V39h0Z" transform="translate(376 705)"/>
  </g>
</svg>
