<svg xmlns="http://www.w3.org/2000/svg" xmlns:xlink="http://www.w3.org/1999/xlink" width="88" height="88" viewBox="0 0 88 88">
  <defs>
    <style>
      .cls-1 {
        fill: url(#linear-gradient);
      }

      .cls-2, .cls-3 {
        fill: #fff;
      }

      .cls-3 {
        opacity: 0.6;
      }
    </style>
    <linearGradient id="linear-gradient" x1="0.5" x2="0.5" y2="1" gradientUnits="objectBoundingBox">
      <stop offset="0" stop-color="#81b7ff"/>
      <stop offset="1" stop-color="#5595f4"/>
    </linearGradient>
  </defs>
  <g id="饮水" transform="translate(-56 -702)">
    <circle id="椭圆_7" data-name="椭圆 7" class="cls-1" cx="44" cy="44" r="44" transform="translate(56 702)"/>
    <path id="路径_30177" data-name="路径 30177" class="cls-2" d="M103.355,770.541c-5.922,0-12.991-.114-13.868-.129-.076,0-.173.008-.288.008a6.67,6.67,0,0,1-4.121-1.458c-1.9-1.5-3.005-3.957-3.287-7.291-.679-6.065-3.434-33.663-3.587-35.2a4.1,4.1,0,0,1,.86-3.169,5.478,5.478,0,0,1,4.488-1.744c.092,0,.186,0,.28,0,.874.022,4.2.033,9.871.033,9.268,0,21.874-.03,23.068-.033.118-.01.295-.02.512-.02a4.859,4.859,0,0,1,3.761,1.49,4.155,4.155,0,0,1,.9,3.407c-.229,2.588-3.659,30.914-4.376,36.829a9.762,9.762,0,0,1-.906,3.238,6.613,6.613,0,0,1-5.669,3.9C109.655,770.5,107.085,770.541,103.355,770.541ZM89.38,766.4l.084.015c.076,0,7.632.129,13.89.129,3.642,0,6.122-.042,7.371-.125a2.608,2.608,0,0,0,2.337-1.661,5.886,5.886,0,0,0,.518-1.822l0-.055.007-.054c1.71-14.1,4.278-35.465,4.367-36.709l0-.085.014-.1a1.352,1.352,0,0,0,.015-.281,1.97,1.97,0,0,0-.708-.108c-.1,0-.164,0-.188.007l-.126.018-.1,0c-.134,0-13.475.033-23.168.033-5.708,0-9.063-.011-9.971-.034l-.18,0c-1.035,0-1.347.236-1.384.268a.234.234,0,0,0-.007.055v.011c0,.007,0-.01,0-.021s-.012-.067-.012-.067l-1.959.4,1.99-.2c.029.291,2.906,29.122,3.592,35.247l.006.057c.18,2.171.8,3.732,1.787,4.516a2.727,2.727,0,0,0,1.637.594h.033Z"/>
    <path id="路径_30178" data-name="路径 30178" class="cls-3" d="M100.038,724.767l1.075,1.2c.029.033.725.806,1.2,1.364l.049.061c2.973,3.878,4.808,7.26,5.454,10.052a7.443,7.443,0,0,1,.019,3.909l.014.031-.208.573a7.72,7.72,0,0,1-4.051,4.547,8.323,8.323,0,0,1-3.423.731H99.86a7.764,7.764,0,0,1-5.714-2.446,9.328,9.328,0,0,1-1.836-2.767L92.3,742c-1.132-2.807-.315-6.412,2.427-10.713a37.586,37.586,0,0,1,4.189-5.365Zm-.032,4.477-.016-.018a34.607,34.607,0,0,0-2.755,3.713,17.67,17.67,0,0,0-2.082,4.317,5.536,5.536,0,0,0-.072,3.615,6.415,6.415,0,0,0,1.226,1.834,4.767,4.767,0,0,0,3.552,1.525h.308a5.353,5.353,0,0,0,2.177-.46,4.687,4.687,0,0,0,2.432-2.721,2.435,2.435,0,0,1,.1-.315,4.148,4.148,0,0,0,.016-2.617C104.214,735.175,101.867,731.674,100.007,729.245Z" transform="translate(0 16)"/>
  </g>
</svg>
