<svg xmlns="http://www.w3.org/2000/svg" xmlns:xlink="http://www.w3.org/1999/xlink" width="88" height="88" viewBox="0 0 88 88">
  <defs>
    <style>
      .cls-1 {
        fill: url(#linear-gradient);
      }

      .cls-2, .cls-3 {
        fill: #fff;
      }

      .cls-3 {
        opacity: 0.6;
      }
    </style>
    <linearGradient id="linear-gradient" x1="0.5" x2="0.5" y2="1" gradientUnits="objectBoundingBox">
      <stop offset="0" stop-color="#ffcf8b"/>
      <stop offset="1" stop-color="#fca649"/>
    </linearGradient>
  </defs>
  <g id="电吹风" transform="translate(-469 -702)">
    <circle id="椭圆_10" data-name="椭圆 10" class="cls-1" cx="44" cy="44" r="44" transform="translate(469 702)"/>
    <path id="联合_4" data-name="联合 4" class="cls-2" d="M13,50a3,3,0,0,0,3-3V39.595a12.084,12.084,0,0,0,6.616-5.785H36a4,4,0,0,0,4-4V20a4,4,0,0,0-4-4H12A12.171,12.171,0,0,0,6.4,38.885V47a3,3,0,0,0,3,3H13m0,4H9.4a7.008,7.008,0,0,1-7-7V41.061A16.226,16.226,0,0,1,.67,16.745,15.892,15.892,0,0,1,12,12H36a8.009,8.009,0,0,1,8,8v9.81a8.009,8.009,0,0,1-8,8H24.818A15.991,15.991,0,0,1,20,42.128V47A7.009,7.009,0,0,1,13,54Z" transform="translate(493 711)"/>
    <path id="路径_30182" data-name="路径 30182" class="cls-2" d="M494.689,772.21q-.976,0-2.027-.072a2,2,0,1,1,.273-3.991c4.169.285,7.11-.4,8.5-1.983a4.166,4.166,0,0,0,.926-3.168,2,2,0,0,1,3.924-.776,7.722,7.722,0,0,1,.052,2.233,7.879,7.879,0,0,1-1.9,4.355C502.45,771.069,499.175,772.21,494.689,772.21Z" transform="translate(0 1)"/>
    <path id="椭圆_17" data-name="椭圆 17" class="cls-3" d="M7,3a4,4,0,1,0,4,4A4,4,0,0,0,7,3M7,0A7,7,0,1,1,0,7,7,7,0,0,1,7,0Z" transform="translate(498 732)"/>
  </g>
</svg>
